<svg width="25" height="24" viewBox="0 0 25 24" fill="none" xmlns="http://www.w3.org/2000/svg">
<path fill-rule="evenodd" clip-rule="evenodd" d="M13.0517 6.00223C13.0533 5.56041 12.6965 5.20089 12.2547 5.19922C11.8129 5.19756 11.4533 5.55438 11.4517 5.99621L11.4333 10.8743L6.59793 10.8561C6.15611 10.8544 5.79659 11.2112 5.79493 11.6531C5.79326 12.0949 6.15009 12.4544 6.59191 12.4561L11.4273 12.4743L11.4089 17.3527C11.4073 17.7945 11.7641 18.154 12.2059 18.1557C12.6477 18.1573 13.0073 17.8005 13.0089 17.3587L13.0273 12.4803L17.9484 12.4988C18.3902 12.5005 18.7497 12.1437 18.7514 11.7018C18.753 11.26 18.3962 10.9005 17.9544 10.8988L13.0333 10.8803L13.0517 6.00223Z" fill="#9B9B9B"/>
</svg>
